<svg xmlns="http://www.w3.org/2000/svg" width="204" height="48" fill="none"><g clip-path="url(#a)"><rect width="10" height="10" x="3.466" y="4" fill="#3962E0" rx="2"/><rect width="10" height="10" x="3.466" y="14" fill="#4E42D1" rx="2"/><rect width="10" height="10" x="13.466" y="4" fill="#317DEB" rx="2"/><rect width="10" height="10" x="13.466" y="14" fill="#3962E0" rx="2"/><rect width="10" height="10" x="23.466" y="4" fill="#2899F5" rx="2"/><rect width="10" height="10" x="23.466" y="14" fill="#317DEB" rx="2"/><rect width="10" height="10" x="23.466" y="24" fill="#3962E0" rx="2"/><rect width="10" height="10" x="23.466" y="34" fill="#4E42D1" rx="2"/><rect width="10" height="10" x="33.466" y="4" fill="#93C5FD" rx="2"/><rect width="10" height="10" x="33.466" y="14" fill="#259AF6" rx="2"/><rect width="10" height="10" x="33.466" y="24" fill="#317DEB" rx="2"/><rect width="10" height="10" x="33.466" y="34" fill="#3962E0" rx="2"/><path fill="#06EAAD" d="M23.466 26a2 2 0 0 0-2-2H6.248c-1.77 0-2.668 2.13-1.431 3.397l15.218 15.588c1.253 1.284 3.43.397 3.43-1.397V26Z"/></g><path fill="#291AD7" d="M54.342 13.606h1.162l7.875 18.32 7.875-18.32h1.162l-8.613 19.907h-.862l-8.6-19.907Zm-.342 0h1.04l.067 10.65v9.257H54V13.606Zm17.746 0h1.04v19.907h-1.108v-9.256l.068-10.65ZM81.112 32.063l4.922-13.343h1.19L80.77 35.933a14.98 14.98 0 0 1-.451 1.093c-.183.41-.42.802-.711 1.176-.292.374-.67.68-1.135.916-.456.246-1.021.37-1.696.37-.154 0-.36-.019-.615-.055a2.357 2.357 0 0 1-.547-.11l-.013-.957c.127.028.296.05.506.069.21.027.355.04.437.04.602 0 1.103-.118 1.504-.355.41-.228.752-.556 1.025-.984.274-.42.515-.916.725-1.49l1.312-3.583ZM76.04 18.72l5.25 13.44.315 1.12-.834.52-5.92-15.08h1.19ZM101.84 27.374h1.107c-.136 1.395-.51 2.57-1.121 3.527a5.887 5.887 0 0 1-2.46 2.16c-1.021.484-2.225.725-3.61.725-1.103 0-2.105-.21-3.008-.629a6.83 6.83 0 0 1-2.31-1.804c-.638-.784-1.13-1.719-1.477-2.803-.346-1.085-.52-2.283-.52-3.596v-2.789c0-1.322.174-2.52.52-3.596.347-1.084.839-2.014 1.477-2.789a6.577 6.577 0 0 1 2.324-1.804c.911-.429 1.928-.643 3.049-.643 1.358 0 2.547.242 3.568.725a5.779 5.779 0 0 1 2.447 2.16c.611.948.985 2.119 1.121 3.513h-1.107c-.137-1.157-.451-2.132-.943-2.925a4.729 4.729 0 0 0-1.996-1.832c-.848-.42-1.878-.63-3.09-.63-.957 0-1.819.188-2.584.561a5.498 5.498 0 0 0-1.969 1.586c-.547.684-.97 1.504-1.271 2.461-.292.948-.438 2.01-.438 3.186v2.816c0 1.158.146 2.22.438 3.186.291.957.706 1.782 1.244 2.474a5.712 5.712 0 0 0 1.955 1.6c.765.374 1.622.56 2.57.56 1.212 0 2.247-.191 3.104-.574a4.537 4.537 0 0 0 2.023-1.79c.501-.803.82-1.815.957-3.036ZM115.021 30.792v-7.643c0-.774-.164-1.44-.492-1.996-.328-.556-.807-.98-1.436-1.271-.629-.3-1.399-.451-2.31-.451-.848 0-1.609.15-2.284.45-.665.293-1.189.694-1.572 1.204a2.778 2.778 0 0 0-.574 1.709l-1.094-.014c0-.565.132-1.107.397-1.627.273-.52.656-.98 1.148-1.38a5.773 5.773 0 0 1 1.764-.971 6.801 6.801 0 0 1 2.242-.356c1.039 0 1.955.178 2.748.534.802.346 1.426.87 1.873 1.572.447.702.67 1.577.67 2.625v7.3c0 .53.036 1.062.109 1.6.073.538.173.97.301 1.299v.137h-1.189a7.573 7.573 0 0 1-.233-1.272 16.228 16.228 0 0 1-.068-1.449Zm.355-5.674.028.944h-3.61c-.911 0-1.727.086-2.447.26-.72.172-1.331.419-1.832.738-.501.319-.884.697-1.148 1.134-.265.438-.397.93-.397 1.477 0 .565.15 1.085.451 1.559.301.473.725.852 1.272 1.134.547.274 1.18.41 1.9.41.984 0 1.855-.168 2.611-.505a5.665 5.665 0 0 0 1.928-1.395 5.514 5.514 0 0 0 1.135-2.05l.478.792c-.154.483-.396.97-.724 1.463a5.895 5.895 0 0 1-1.272 1.354c-.519.4-1.13.729-1.832.984-.701.246-1.499.37-2.392.37-.939 0-1.759-.174-2.461-.52-.693-.356-1.231-.839-1.613-1.45-.383-.62-.575-1.326-.575-2.119 0-.683.155-1.308.465-1.873a4.22 4.22 0 0 1 1.34-1.449c.592-.41 1.308-.72 2.146-.93.848-.219 1.801-.328 2.858-.328h3.691ZM120.874 12.513v21h-1.094v-21h1.094ZM129.953 33.786c-.93 0-1.791-.178-2.584-.533a6.43 6.43 0 0 1-2.078-1.518 7.235 7.235 0 0 1-1.395-2.324c-.328-.893-.492-1.873-.492-2.94v-.6c0-1.104.164-2.106.492-3.009.337-.911.793-1.695 1.367-2.351a6.026 6.026 0 0 1 1.983-1.531 5.618 5.618 0 0 1 2.42-.534c.866 0 1.649.16 2.351.479a5.248 5.248 0 0 1 1.805 1.34 5.927 5.927 0 0 1 1.148 2.05c.265.793.397 1.668.397 2.625v.916h-11.279v-.998h10.199v-.177a6.137 6.137 0 0 0-.574-2.584 4.699 4.699 0 0 0-1.573-1.914c-.683-.493-1.508-.739-2.474-.739a4.57 4.57 0 0 0-2.12.492 4.962 4.962 0 0 0-1.626 1.368c-.456.574-.807 1.253-1.053 2.037a8.319 8.319 0 0 0-.369 2.53v.6c0 .876.136 1.696.41 2.462.273.765.656 1.44 1.148 2.023a5.426 5.426 0 0 0 1.737 1.354 4.875 4.875 0 0 0 2.187.492c.857 0 1.641-.15 2.352-.451.711-.301 1.358-.83 1.941-1.586l.711.533a6.051 6.051 0 0 1-1.189 1.271 5.421 5.421 0 0 1-1.655.889c-.629.219-1.358.328-2.187.328ZM138.704 21.878v11.635h-1.08V18.72h1.066l.014 3.158Zm-.205 3.103-.533-.629a7.798 7.798 0 0 1 .574-2.242 6.76 6.76 0 0 1 1.217-1.886 5.794 5.794 0 0 1 1.777-1.3 5.265 5.265 0 0 1 2.256-.478c.738 0 1.399.105 1.982.315.584.2 1.076.52 1.477.957.41.437.72 1.002.929 1.695.21.684.315 1.518.315 2.502v9.598h-1.08v-9.598c0-1.167-.16-2.069-.479-2.707-.319-.647-.765-1.103-1.34-1.367-.565-.265-1.225-.397-1.982-.397-.875 0-1.631.196-2.27.588a5.097 5.097 0 0 0-1.558 1.463 7.341 7.341 0 0 0-.943 1.819c-.21.628-.324 1.184-.342 1.667ZM157.736 33.513h-4.717l.028-1.012h4.689c1.431 0 2.689-.333 3.774-.998 1.093-.665 1.95-1.586 2.57-2.762.62-1.185.93-2.547.93-4.088v-2.228c0-1.149-.178-2.201-.534-3.158a7.294 7.294 0 0 0-1.503-2.475 6.525 6.525 0 0 0-2.284-1.6c-.884-.382-1.85-.574-2.898-.574h-4.854v-1.012h4.854c1.194 0 2.297.215 3.308.643a7.629 7.629 0 0 1 2.653 1.805c.747.774 1.326 1.709 1.736 2.802.419 1.085.629 2.288.629 3.61v2.187c0 1.322-.21 2.53-.629 3.623a8.106 8.106 0 0 1-1.75 2.803 7.87 7.87 0 0 1-2.652 1.805c-1.012.42-2.128.629-3.35.629Zm-4.375-19.907v19.907h-1.107V13.606h1.107ZM178.272 30.792v-7.643c0-.774-.164-1.44-.492-1.996-.328-.556-.806-.98-1.435-1.271-.629-.3-1.399-.451-2.311-.451-.848 0-1.609.15-2.283.45-.665.293-1.19.694-1.572 1.204a2.779 2.779 0 0 0-.575 1.709l-1.093-.014c0-.565.132-1.107.396-1.627a4.45 4.45 0 0 1 1.149-1.38 5.78 5.78 0 0 1 1.763-.971 6.805 6.805 0 0 1 2.242-.356c1.04 0 1.956.178 2.749.534.802.346 1.426.87 1.873 1.572.446.702.67 1.577.67 2.625v7.3c0 .53.036 1.062.109 1.6.073.538.173.97.301 1.299v.137h-1.19c-.1-.347-.178-.77-.232-1.272a15.872 15.872 0 0 1-.069-1.449Zm.356-5.674.027.944h-3.609c-.912 0-1.727.086-2.447.26-.72.172-1.331.419-1.832.738-.502.319-.885.697-1.149 1.134-.264.438-.396.93-.396 1.477 0 .565.15 1.085.451 1.559.301.473.724.852 1.271 1.134.547.274 1.181.41 1.901.41.984 0 1.855-.168 2.611-.505a5.675 5.675 0 0 0 1.928-1.395 5.528 5.528 0 0 0 1.135-2.05l.478.792a5.87 5.87 0 0 1-.725 1.463 5.912 5.912 0 0 1-1.271 1.354 6.75 6.75 0 0 1-1.832.984c-.702.246-1.499.37-2.393.37-.938 0-1.759-.174-2.461-.52-.692-.356-1.23-.839-1.613-1.45-.383-.62-.574-1.326-.574-2.119 0-.683.155-1.308.465-1.873a4.21 4.21 0 0 1 1.34-1.449c.592-.41 1.308-.72 2.146-.93.848-.219 1.8-.328 2.857-.328h3.692ZM184.125 18.72v14.793h-1.094V18.72h1.094Zm-1.435-4.485c0-.246.082-.455.246-.629a.867.867 0 0 1 .656-.273.85.85 0 0 1 .642.273c.174.174.26.383.26.63a.854.854 0 0 1-.26.628.897.897 0 0 1-.642.246.916.916 0 0 1-.656-.246.882.882 0 0 1-.246-.629ZM188.993 12.513v21H187.9v-21h1.093ZM197.116 32.063l4.921-13.343h1.19l-6.453 17.213c-.119.328-.269.692-.451 1.093-.183.41-.42.802-.711 1.176-.292.374-.67.68-1.135.916-.456.246-1.021.37-1.695.37a4.58 4.58 0 0 1-.616-.055 2.365 2.365 0 0 1-.547-.11l-.013-.957c.127.028.296.05.506.069.209.027.355.04.437.04.602 0 1.103-.118 1.504-.355.41-.228.752-.556 1.025-.984.274-.42.515-.916.725-1.49l1.313-3.583Zm-5.073-13.343 5.25 13.44.315 1.12-.834.52-5.92-15.08h1.189Z"/><defs><clipPath id="a"><rect width="48" height="48" fill="#fff" rx="7"/></clipPath></defs></svg>