<svg xmlns="http://www.w3.org/2000/svg" width="48" height="48" fill="none"><g clip-path="url(#a)"><rect width="10" height="10" x="3.466" y="4" fill="#3962E0" rx="2"/><rect width="10" height="10" x="3.466" y="14" fill="#4E42D1" rx="2"/><rect width="10" height="10" x="13.466" y="4" fill="#317DEB" rx="2"/><rect width="10" height="10" x="13.466" y="14" fill="#3962E0" rx="2"/><rect width="10" height="10" x="23.466" y="4" fill="#2899F5" rx="2"/><rect width="10" height="10" x="23.466" y="14" fill="#317DEB" rx="2"/><rect width="10" height="10" x="23.466" y="24" fill="#3962E0" rx="2"/><rect width="10" height="10" x="23.466" y="34" fill="#4E42D1" rx="2"/><rect width="10" height="10" x="33.466" y="4" fill="#93C5FD" rx="2"/><rect width="10" height="10" x="33.466" y="14" fill="#259AF6" rx="2"/><rect width="10" height="10" x="33.466" y="24" fill="#317DEB" rx="2"/><rect width="10" height="10" x="33.466" y="34" fill="#3962E0" rx="2"/><path fill="#06EAAD" d="M23.466 26a2 2 0 0 0-2-2H6.248c-1.77 0-2.668 2.13-1.431 3.397l15.218 15.588c1.253 1.284 3.43.397 3.43-1.397V26Z"/></g><defs><clipPath id="a"><rect width="48" height="48" fill="#fff" rx="7"/></clipPath></defs></svg>