<svg width="9" height="20" fill="none" xmlns="http://www.w3.org/2000/svg"><mask id="a" fill="#fff"><path fill-rule="evenodd" clip-rule="evenodd" d="M9 20V0H6.998v8.558A13.91 13.91 0 0 1 .998 20H9Z"/></mask><path fill-rule="evenodd" clip-rule="evenodd" d="M9 20V0H6.998v8.558A13.91 13.91 0 0 1 .998 20H9Z" fill="#06EAAD"/><path d="M9 0h2v-2H9v2Zm0 20v2h2v-2H9ZM6.998 0v-2h-2v2h2Zm-6 20-1.137-1.645L-5.412 22h6.41v-2ZM7 0v20h4V0H7Zm-.002 2H9v-4H6.998v4Zm-2-2v6h4V0h-4Zm0 6v2h4V6h-4Zm0 2v.558h4V8h-4Zm0 .558a11.91 11.91 0 0 1-5.137 9.797l2.274 3.29A15.91 15.91 0 0 0 8.998 8.558h-4ZM.998 22H9v-4H.998v4Z" fill="#06EAAD" mask="url(#a)"/></svg>