<svg width="142" height="212" fill="none" xmlns="http://www.w3.org/2000/svg"><path d="M141.46 87.51v36.675c0 15.104-1.699 28.178-5.098 39.223-3.304 11.045-8.118 20.155-14.443 27.329-6.231 7.175-13.688 12.508-22.373 16.001-8.59 3.399-18.125 5.098-28.604 5.098-8.401 0-16.237-1.086-23.505-3.257-7.27-2.171-13.83-5.522-19.683-10.054-5.759-4.625-10.715-10.384-14.868-17.275-4.154-6.891-7.364-15.104-9.63-24.639C1.087 147.077 0 136.268 0 124.185V87.51c0-15.293 1.652-28.415 4.956-39.366 3.398-10.95 8.26-20.012 14.585-27.187 6.325-7.174 13.783-12.46 22.373-15.86C50.6 1.7 60.181 0 70.66 0c8.402 0 16.19 1.086 23.364 3.257 7.269 2.171 13.83 5.522 19.683 10.053 5.853 4.532 10.809 10.243 14.868 17.134 4.154 6.892 7.316 15.104 9.488 24.639 2.265 9.44 3.398 20.249 3.398 32.427Zm-44.18 42.197V81.704c0-7.08-.424-13.216-1.274-18.408-.755-5.287-1.888-9.77-3.399-13.452-1.416-3.682-3.21-6.656-5.38-8.921-2.172-2.266-4.673-3.918-7.505-4.956-2.738-1.133-5.759-1.7-9.063-1.7-4.154 0-7.882.85-11.186 2.55-3.304 1.699-6.09 4.39-8.355 8.07-2.266 3.588-4.012 8.45-5.24 14.586-1.132 6.041-1.698 13.452-1.698 22.231v48.003c0 7.08.377 13.263 1.133 18.55.85 5.286 1.982 9.818 3.398 13.594 1.51 3.681 3.351 6.702 5.522 9.062 2.172 2.266 4.673 3.918 7.505 4.956 2.832 1.039 5.9 1.558 9.204 1.558 4.154 0 7.836-.803 11.045-2.407 3.21-1.7 5.948-4.39 8.213-8.072 2.36-3.776 4.107-8.732 5.24-14.868 1.227-6.136 1.84-13.594 1.84-22.373Z" fill="#7254F3"/></svg>
